<svg xmlns="http://www.w3.org/2000/svg" viewBox="0 0 1180 520" width="1180" height="520">
<defs>
  <marker id="arrow" markerWidth="7" markerHeight="7" refX="3.5" refY="3.5" orient="auto-start-reverse">
    <path d="M0,0 L7,3.5 L0,7 z" fill="#111"/>
  </marker>
  <style>
    .outline { fill:#f5f5f5; stroke:#111; stroke-width:2; }
    .reference { fill:none; stroke:#666; stroke-width:1.4; stroke-dasharray:7 5; }
    .duct { fill:none; stroke:#005a8d; stroke-width:2.2; }
    .engine { fill:none; stroke:#a13b00; stroke-width:2; stroke-dasharray:8 4; }
    .gear { fill:none; stroke:#684c8c; stroke-width:2; stroke-dasharray:5 4; }
    text { font-family:Arial,Helvetica,sans-serif; fill:#111; }
  </style>
</defs>
<polyline points="108.0,197.6 157.6,178.4 237.6,165.6 349.6,162.4 469.6,164.0 589.6,170.4 717.6,176.8 821.6,189.6 893.6,218.4 893.6,301.6 821.6,330.4 717.6,343.2 589.6,349.6 469.6,356.0 349.6,357.6 237.6,354.4 157.6,341.6 108.0,322.4 108.0,197.6" class="outline"/><polyline points="325.6,116.0 799.1,116.0 799.1,404.0 325.6,404.0 325.6,116.0" class="reference"/><line x1="633.4" y1="404.0" x2="633.4" y2="116.0" stroke="#b00020" stroke-width="1.8" stroke-dasharray="8 5"/><text x="643.4" y="104.0" font-size="13" fill="#b00020">Linea de bisagra flap</text><line x1="440.8" y1="204.0" x2="584.8" y2="178.4" class="duct"/><text x="477.6" y="144.8" font-size="13" fill="#005a8d">Escape lateral exterior</text><text x="30.0" y="30.0" font-size="18" font-weight="bold">Vista en planta - estacion motor y=4.30 m (eta=0.292)</text><line x1="325.6" y1="495.0" x2="799.1" y2="495.0" stroke="#111" stroke-width="1.3" marker-start="url(#arrow)" marker-end="url(#arrow)"/><text x="562.3" y="488.0" text-anchor="middle" font-size="13">c local = 2.959 m</text></svg>
