<svg xmlns="http://www.w3.org/2000/svg" viewBox="0 0 760 620" width="760" height="620">
<defs>
  <marker id="arrow" markerWidth="7" markerHeight="7" refX="3.5" refY="3.5" orient="auto-start-reverse">
    <path d="M0,0 L7,3.5 L0,7 z" fill="#111"/>
  </marker>
  <style>
    .outline { fill:#f5f5f5; stroke:#111; stroke-width:2; }
    .reference { fill:none; stroke:#666; stroke-width:1.4; stroke-dasharray:7 5; }
    .duct { fill:none; stroke:#005a8d; stroke-width:2.2; }
    .engine { fill:none; stroke:#a13b00; stroke-width:2; stroke-dasharray:8 4; }
    .gear { fill:none; stroke:#684c8c; stroke-width:2; stroke-dasharray:5 4; }
    text { font-family:Arial,Helvetica,sans-serif; fill:#111; }
  </style>
</defs>
<ellipse cx="380.0" cy="330.0" rx="265.3" ry="265.3" class="reference"/><ellipse cx="380.0" cy="330.0" rx="82.3" ry="95.8" class="outline"/><ellipse cx="380.0" cy="377.2" rx="50.0" ry="35.4" fill="none" stroke="#005a8d" stroke-width="2.2"/><line x1="380.0" y1="330.0" x2="645.3" y2="330.0" stroke="#555" stroke-width="3"/><line x1="380.0" y1="330.0" x2="512.6" y2="559.7" stroke="#555" stroke-width="3"/><line x1="380.0" y1="330.0" x2="247.4" y2="559.7" stroke="#555" stroke-width="3"/><line x1="380.0" y1="330.0" x2="114.7" y2="330.0" stroke="#555" stroke-width="3"/><line x1="380.0" y1="330.0" x2="247.4" y2="100.3" stroke="#555" stroke-width="3"/><line x1="380.0" y1="330.0" x2="512.6" y2="100.3" stroke="#555" stroke-width="3"/><line x1="297.6" y1="585.0" x2="462.4" y2="585.0" stroke="#111" stroke-width="1.3" marker-start="url(#arrow)" marker-end="url(#arrow)"/><text x="380.0" y="578.0" text-anchor="middle" font-size="13">W max = 1.22 m</text><line x1="705.0" y1="234.2" x2="705.0" y2="425.9" stroke="#111" stroke-width="1.3" marker-start="url(#arrow)" marker-end="url(#arrow)"/><text x="721.0" y="330.0" text-anchor="middle" font-size="13" transform="rotate(-90 721.0 330.0)">H max = 1.42 m</text><text x="25.0" y="30.0" font-size="18" font-weight="bold">Vista frontal - helice 6 palas - Ø 3.93 m</text><text x="380.0" y="378.6" font-size="13" text-anchor="middle" fill="#005a8d">A captura 0.305 m²</text></svg>
